<?xml version="1.0" encoding="utf-8"?>
<!-- Generator: Adobe Illustrator 26.0.1, SVG Export Plug-In . SVG Version: 6.00 Build 0)  -->
<svg version="1.1" id="Layer_1" xmlns="http://www.w3.org/2000/svg" xmlns:xlink="http://www.w3.org/1999/xlink" x="0px" y="0px"
	 viewBox="0 0 300 130.14" style="enable-background:new 0 0 300 130.14;" xml:space="preserve">
<style type="text/css">
	.st0{fill:none;}
	.st1{fill:url(#SVGID_1_);}
	.st2{fill:url(#SVGID_00000074426172502748682490000017858206877220998051_);}
	.st3{fill:#FFFFFF;}
	.st4{fill:#020203;stroke:#E84B1E;}
	.st5{opacity:0.9;fill:#FFFFFF;enable-background:new    ;}
	.st6{fill:none;stroke:#E84B1E;stroke-width:2;}
	.st7{fill:#020203;stroke:#FFFFFF;stroke-width:2;}
	.st8{fill:#020203;stroke:#FFFFFF;}
	.st9{fill:#E94E1B;}
	.st10{enable-background:new    ;}
	.st11{fill:#676767;}
</style>
<pattern  y="-72.85" width="20" height="20" patternUnits="userSpaceOnUse" id="steamPattern" viewBox="0 -20 20 20" style="overflow:visible;">
	<g>
		<rect y="-20" class="st0" width="20" height="20"/>
		<path class="st0" d="M0-10c3.33,3.33,6.67,3.33,10,0s6.67-3.33,10,0"/>
	</g>
</pattern>
<linearGradient id="SVGID_1_" gradientUnits="userSpaceOnUse" x1="1.0713" y1="227.2878" x2="2.4787" y2="225.8804" gradientTransform="matrix(80 0 0 -80 -69 18190.0645)">
	<stop  offset="0" style="stop-color:#F28A1A"/>
	<stop  offset="1" style="stop-color:#E84B1E"/>
</linearGradient>
<circle class="st1" cx="73" cy="63.34" r="56.3"/>
<circle class="st0" cx="73" cy="63.34" r="53.48"/>
<pattern  id="SVGID_00000106106695056441776910000011290382310853840288_" xlink:href="#steamPattern" patternTransform="matrix(1 0 0 -1 19 -15397.0146)">
</pattern>
<rect x="30.77" y="21.11" style="fill:url(#SVGID_00000106106695056441776910000011290382310853840288_);" width="84.44" height="42.22"/>
<path class="st3" d="M50.39,49.26c0-9.38,7.04-14.07,21.11-14.07s21.11,4.69,21.11,14.07v7.04H50.39V49.26z"/>
<path class="st4" d="M51.89,56.3h33.78"/>
<ellipse class="st5" cx="73" cy="77.41" rx="35.19" ry="14.07"/>
<path class="st6" d="M51.89,74.59c14.07,6.57,28.15,6.57,42.22,0"/>
<path class="st7" d="M58.92,63.34v28.15"/>
<path class="st7" d="M87.07,63.34v28.15"/>
<path class="st8" d="M56.11,70.37h5.63"/>
<path class="st8" d="M84.26,70.37h5.63"/>
<g>
	<path class="st9" d="M186.37,73.47c-1.1,0-2.32-0.66-3.68-1.97c-1.36-1.32-2.58-3.07-3.68-5.26c-1.03-1.95-1.9-3.59-2.61-4.93
		c-0.71-1.34-1.36-2.46-1.94-3.36c-0.58-0.9-1.15-1.67-1.69-2.3c-0.55-0.63-1.18-1.24-1.89-1.83l-0.97-1.02
		c3.16-0.44,6.11-1.18,8.86-2.22c2.74-1.04,5.11-2.33,7.11-3.87c2-1.53,3.56-3.27,4.69-5.21c1.13-1.94,1.69-4.08,1.69-6.42
		c0-1.75-0.36-3.33-1.06-4.74c-0.71-1.41-1.65-2.6-2.81-3.57c-1.16-0.97-2.52-1.73-4.07-2.26s-3.16-0.8-4.84-0.8
		c-2.52,0-5.19,0.69-8.03,2.07c-2.84,1.38-5.36,3.35-7.55,5.91v-0.07l-0.29,0.29c-0.07,0.1-0.13,0.17-0.19,0.22
		c-0.07,0.05-0.1,0.12-0.1,0.22c0,0.05,0.06,0.12,0.19,0.22l-0.29,0.44v-0.29c0-0.93-0.16-1.94-0.48-3.03
		c-0.32-1.1-0.82-2.12-1.5-3.07c-0.68-0.95-1.6-1.75-2.76-2.41c-1.16-0.66-2.55-0.99-4.16-0.99c-1.36,0-2.79,0.29-4.31,0.88
		c-1.52,0.58-2.92,1.51-4.21,2.78c-1.55,1.51-2.53,2.69-2.95,3.55c-0.42,0.85-0.63,1.43-0.63,1.72c0,0.24,0.13,0.37,0.39,0.37
		c0.26,0,0.81-0.32,1.65-0.95l2.32-2.19c0.26-0.29,0.66-0.61,1.21-0.95c0.55-0.34,1.15-0.68,1.79-1.02
		c0.64-0.34,1.31-0.62,1.98-0.84c0.68-0.22,1.31-0.33,1.89-0.33c1.22,0,1.84,0.61,1.84,1.83v0.58c-0.26,3.8-0.73,7.25-1.4,10.34
		c-0.68,3.1-1.45,5.97-2.32,8.63c-0.87,2.66-1.78,5.15-2.71,7.49c-0.94,2.34-1.76,4.61-2.47,6.8l-1.55,4.68
		c-0.19,0.73-0.29,1.41-0.29,2.05c0,1.22,0.34,2.24,1.02,3.07c0.68,0.83,1.69,1.24,3.05,1.24c1.03,0,1.87-0.16,2.52-0.48
		c0.64-0.32,1.26-0.99,1.84-2.01c0.58-1.02,1.23-2.5,1.94-4.42c0.71-1.92,1.71-4.52,3-7.79c0.39-1.22,0.73-2.19,1.02-2.92
		s0.52-1.32,0.68-1.75c0.16-0.44,0.29-0.75,0.39-0.95c0.1-0.19,0.18-0.34,0.24-0.44c0.71,0.15,1.32,0.35,1.84,0.62
		c0.52,0.27,0.97,0.66,1.36,1.17c0.39,0.51,0.74,1.17,1.06,1.97c0.32,0.8,0.61,1.82,0.87,3.03c0.58,2.68,1.42,5.12,2.52,7.31
		c1.1,2.19,2.4,4.07,3.92,5.63c1.52,1.56,3.24,2.77,5.18,3.62c1.94,0.85,4.03,1.28,6.29,1.28c1.22,0,2.34-0.13,3.34-0.4
		c1-0.27,1.6-0.65,1.79-1.13v-0.15c0-0.34-0.19-0.69-0.58-1.06C187.43,73.65,186.95,73.47,186.37,73.47z M163.33,50.07h-2.23
		c-0.19,0-0.29-0.05-0.29-0.15c0-0.1,0.01-0.21,0.05-0.33c0.03-0.12,0.08-0.3,0.15-0.55l0.29-1.83c0.45-2.34,1.08-4.61,1.89-6.8
		c0.81-2.19,2.08-4.31,3.82-6.36c1.81-2.09,3.52-3.65,5.13-4.68c1.61-1.02,3.26-1.54,4.94-1.54c1.87,0,3.31,0.65,4.31,1.94
		c1,1.29,1.5,2.89,1.5,4.79c0,2.15-0.53,4.16-1.6,6.03c-1.06,1.88-2.48,3.51-4.26,4.9c-1.78,1.39-3.86,2.5-6.24,3.33
		C168.4,49.66,165.91,50.07,163.33,50.07z"/>
	<path class="st9" d="M276.19,46.78h-0.1c-0.19,0-0.65,0.24-1.36,0.73c-0.71,0.49-1.42,1.22-2.13,2.19
		c-0.71,0.93-1.47,1.85-2.27,2.78c-0.81,0.93-1.61,1.8-2.42,2.63c-0.81,0.83-1.58,1.56-2.32,2.19c-0.74,0.63-1.34,1.12-1.79,1.46
		c-0.07-0.29-0.02-0.96,0.14-2.01c0.16-1.05,0.4-2.24,0.73-3.58c0.32-1.34,0.68-2.74,1.06-4.2c0.39-1.46,0.77-2.78,1.16-3.95
		c0.13-0.49,0.23-0.91,0.29-1.28c0.06-0.37,0.1-0.57,0.1-0.62c0.13-0.88-0.16-1.56-0.87-2.05c-0.71-0.49-1.42-0.73-2.13-0.73
		c-1.03,0-1.89,0.09-2.56,0.26c-0.68,0.17-1.28,0.49-1.79,0.95c-0.52,0.46-0.98,1.13-1.4,2.01c-0.42,0.88-0.89,2-1.4,3.36
		c-0.71,1.9-1.61,3.8-2.71,5.7c-1.1,1.9-2.19,3.62-3.29,5.15c-1.1,1.54-2.1,2.8-3,3.8c-0.9,1-1.49,1.6-1.74,1.79
		c-0.58,0.54-1,0.8-1.26,0.8c-0.13,0-0.1-1,0.1-3c0.13-1.07,0.47-2.6,1.02-4.57c0.55-1.97,1.31-4.42,2.27-7.35
		c0.39-1.02,0.71-2.01,0.97-2.96c0.26-0.95,0.39-1.6,0.39-1.94c0.13-0.97-0.1-1.77-0.68-2.38c-0.58-0.61-1.39-0.91-2.42-0.91
		c-1.23,0-2.41,0.46-3.53,1.39c-1.13,0.93-2.13,2.18-3,3.77c-0.87,1.58-1.6,3.4-2.18,5.45c-0.19,0.68-0.35,1.37-0.5,2.06
		c-0.17,0.2-0.33,0.38-0.46,0.5c-0.71,0.98-1.6,2.02-2.66,3.14c-1.06,1.12-2.19,2.16-3.39,3.11c-1.2,0.95-2.37,1.73-3.53,2.34
		c-1.16,0.61-2.19,0.91-3.1,0.91c-0.32,0-0.65-0.07-0.97-0.22c-0.32-0.15-0.61-0.41-0.87-0.8c-0.26-0.39-0.47-0.94-0.63-1.65
		c-0.16-0.71-0.18-1.62-0.05-2.74c0.13-1.46,0.56-3.04,1.31-4.75c0.74-1.71,1.63-3.29,2.66-4.75c1.03-1.46,2.13-2.67,3.29-3.62
		c1.16-0.95,2.23-1.43,3.19-1.43c0.64,0,0.98,0.23,1.02,0.69c0.03,0.46-0.1,0.99-0.39,1.57c-0.29,0.58-0.63,1.15-1.02,1.68
		c-0.39,0.54-0.61,0.88-0.68,1.02c-0.32,0.44-0.6,0.87-0.82,1.28c-0.23,0.41-0.34,0.74-0.34,0.99l0.1,0.29
		c0,0.15,0.16,0.22,0.48,0.22c0.52,0,1.11-0.24,1.79-0.73c0.68-0.49,1.31-1.1,1.89-1.83c0.58-0.73,1.08-1.5,1.5-2.3
		c0.42-0.8,0.66-1.5,0.73-2.08c0.32-3.31-1.68-4.97-6-4.97c-2.26,0-4.49,0.58-6.68,1.75c-2.19,1.17-4.18,2.67-5.95,4.5
		c-1.78,1.83-3.24,3.83-4.4,5.99c-0.39,0.73-0.7,1.45-0.98,2.16c-0.83,0.91-1.66,1.8-2.51,2.63c-1.49,1.46-2.92,2.72-4.31,3.76
		c-1.39,1.05-2.69,1.86-3.92,2.45c-1.23,0.58-2.26,0.88-3.1,0.88c-0.9-0.05-1.55-0.34-1.94-0.88c-0.39-0.54-0.63-1.19-0.73-1.97
		c-0.1-0.78-0.1-1.62,0-2.52c0.1-0.9,0.24-1.71,0.44-2.41c0.19-0.71,0.37-1.24,0.53-1.61c0.16-0.37,0.21-0.45,0.15-0.26l1.16-0.07
		c1.61-0.05,3.18-0.33,4.69-0.84c1.52-0.51,2.89-1.18,4.11-2.01c1.23-0.83,2.23-1.8,3-2.92c0.77-1.12,1.22-2.31,1.35-3.58
		c0.32-2.92-1.58-4.51-5.71-4.75h-1.06c-2.13,0.1-4.23,0.71-6.29,1.83c-2.07,1.12-3.92,2.52-5.57,4.2
		c-1.65,1.68-2.99,3.56-4.02,5.63c-1.03,2.07-1.65,4.08-1.84,6.03c-0.32,3.27,0.31,5.86,1.89,7.79c1.58,1.93,3.92,2.89,7.02,2.89
		c2.52,0,5.47-1.1,8.86-3.29c2.14-1.39,4.39-3.34,6.75-5.86c-0.09,2.76,0.56,4.99,1.96,6.7c1.58,1.93,3.89,2.89,6.92,2.89
		c2.45,0,5.34-1.06,8.66-3.18c2.47-1.58,5.07-3.96,7.77-7.15c-0.2,2.71,0.25,4.97,1.37,6.79c1.16,1.88,2.9,2.81,5.23,2.81
		c1.74,0,3.45-0.91,5.13-2.74c1.68-1.83,3.81-4.76,6.39-8.81l-1.06,5.19c-0.13,0.54-0.28,1.1-0.44,1.68
		c-0.16,0.58-0.31,1.17-0.44,1.75l-4.55,3.29c-3.81,2.88-6.63,5.36-8.47,7.46c-1.84,2.09-2.82,3.9-2.95,5.41
		c-0.13,1.12,0.32,2.09,1.36,2.92c1.03,0.83,2.58,1.24,4.65,1.24c1.61,0,3.37-0.35,5.28-1.06c1.9-0.71,3.77-1.84,5.61-3.4
		c1.84-1.56,3.55-3.62,5.13-6.18c1.58-2.56,2.82-5.71,3.73-9.47l0.58-2.49l2.9-2.41c1.94-1.61,3.58-3.12,4.94-4.53
		c1.36-1.41,2.43-2.68,3.24-3.8c0.81-1.12,1.4-2.08,1.79-2.89s0.58-1.4,0.58-1.79C276.99,46.98,276.77,46.78,276.19,46.78z
		 M198.27,51.46c0.39-0.83,0.97-1.68,1.74-2.56c0.77-0.88,1.63-1.67,2.57-2.38c0.93-0.71,1.84-1.29,2.71-1.75
		c0.87-0.46,1.56-0.69,2.08-0.69c0.39,0,0.66,0.16,0.82,0.48c0.16,0.32,0.21,0.62,0.15,0.91c-0.13,1.51-1.15,2.8-3.05,3.87
		c-1.9,1.07-4.08,1.78-6.53,2.12c-0.07,0-0.15,0.01-0.24,0.04c-0.1,0.02-0.18,0.04-0.24,0.04V51.46z M250.83,72.04
		c-0.52,1.24-1.03,2.3-1.55,3.18c-1.1,1.71-2.41,3.17-3.92,4.39c-1.52,1.22-2.86,1.83-4.02,1.83c-0.65,0-0.9-0.29-0.77-0.88
		c0.13-1.32,0.9-2.72,2.32-4.2c1.42-1.49,3.68-3.35,6.78-5.59l2.32-1.68C251.73,69.81,251.34,70.8,250.83,72.04z"/>
</g>
<g class="st10">
	<path class="st11" d="M138.46,99.45l1.47-0.23c0.08,0.59,0.31,1.04,0.69,1.35c0.38,0.31,0.9,0.47,1.58,0.47
		c0.68,0,1.19-0.14,1.52-0.42c0.33-0.28,0.5-0.6,0.5-0.98c0-0.34-0.15-0.6-0.44-0.79c-0.2-0.13-0.71-0.3-1.52-0.5
		c-1.09-0.27-1.84-0.51-2.26-0.71c-0.42-0.2-0.74-0.48-0.96-0.83c-0.22-0.35-0.33-0.75-0.33-1.17c0-0.39,0.09-0.75,0.27-1.08
		c0.18-0.33,0.42-0.61,0.73-0.83c0.23-0.17,0.55-0.31,0.94-0.43s0.83-0.18,1.28-0.18c0.69,0,1.29,0.1,1.81,0.3s0.9,0.47,1.15,0.8
		c0.25,0.34,0.42,0.79,0.51,1.36l-1.45,0.2c-0.07-0.45-0.26-0.8-0.57-1.06s-0.76-0.38-1.34-0.38c-0.68,0-1.17,0.11-1.46,0.34
		c-0.29,0.23-0.44,0.49-0.44,0.79c0,0.19,0.06,0.37,0.18,0.52c0.12,0.16,0.31,0.29,0.57,0.4c0.15,0.05,0.59,0.18,1.31,0.38
		c1.05,0.28,1.78,0.51,2.2,0.69s0.74,0.44,0.98,0.78s0.35,0.76,0.35,1.27c0,0.5-0.14,0.96-0.43,1.4c-0.29,0.44-0.71,0.77-1.25,1.01
		c-0.54,0.24-1.16,0.36-1.85,0.36c-1.14,0-2.01-0.24-2.6-0.71C139,101.08,138.62,100.38,138.46,99.45z"/>
	<path class="st11" d="M147.5,102.06V89.97h1.48v4.34c0.69-0.8,1.57-1.2,2.62-1.2c0.65,0,1.21,0.13,1.69,0.38
		c0.48,0.26,0.82,0.61,1.03,1.06s0.31,1.1,0.31,1.96v5.55h-1.48v-5.55c0-0.74-0.16-1.28-0.48-1.62c-0.32-0.34-0.78-0.51-1.36-0.51
		c-0.44,0-0.85,0.11-1.24,0.34c-0.39,0.23-0.66,0.54-0.83,0.93c-0.17,0.39-0.25,0.93-0.25,1.62v4.79H147.5z"/>
	<path class="st11" d="M162.6,100.98c-0.55,0.47-1.08,0.8-1.59,0.99c-0.51,0.19-1.05,0.29-1.64,0.29c-0.96,0-1.7-0.24-2.22-0.71
		c-0.52-0.47-0.78-1.07-0.78-1.8c0-0.43,0.1-0.82,0.29-1.18c0.19-0.35,0.45-0.64,0.77-0.85s0.67-0.38,1.07-0.49
		c0.29-0.08,0.73-0.15,1.32-0.22c1.2-0.14,2.08-0.31,2.65-0.51c0.01-0.2,0.01-0.33,0.01-0.39c0-0.6-0.14-1.03-0.42-1.28
		c-0.38-0.33-0.94-0.5-1.69-0.5c-0.7,0-1.21,0.12-1.55,0.37c-0.33,0.25-0.58,0.68-0.74,1.3l-1.45-0.2c0.13-0.62,0.35-1.12,0.65-1.5
		c0.3-0.38,0.74-0.68,1.31-0.88c0.57-0.21,1.23-0.31,1.99-0.31c0.75,0,1.35,0.09,1.82,0.26c0.47,0.18,0.81,0.4,1.03,0.66
		s0.37,0.6,0.46,1.01c0.05,0.25,0.07,0.71,0.07,1.37v1.98c0,1.38,0.03,2.25,0.09,2.62c0.06,0.37,0.19,0.72,0.38,1.05h-1.55
		C162.75,101.75,162.65,101.39,162.6,100.98z M162.48,97.66c-0.54,0.22-1.35,0.41-2.42,0.56c-0.61,0.09-1.04,0.19-1.29,0.3
		c-0.25,0.11-0.45,0.27-0.59,0.48c-0.14,0.21-0.21,0.45-0.21,0.71c0,0.4,0.15,0.73,0.45,0.99c0.3,0.26,0.74,0.4,1.32,0.4
		c0.57,0,1.08-0.12,1.53-0.38s0.77-0.59,0.98-1.03c0.16-0.33,0.24-0.83,0.24-1.48V97.66z"/>
	<path class="st11" d="M166.26,102.06V93.3h1.34v1.33c0.34-0.62,0.66-1.03,0.94-1.23s0.61-0.3,0.95-0.3c0.5,0,1.01,0.16,1.53,0.48
		l-0.51,1.38c-0.36-0.21-0.73-0.32-1.09-0.32c-0.32,0-0.62,0.1-0.87,0.29c-0.26,0.19-0.44,0.47-0.55,0.81
		c-0.16,0.53-0.25,1.11-0.25,1.73v4.58H166.26z"/>
	<path class="st11" d="M177.9,99.24l1.53,0.19c-0.24,0.9-0.69,1.59-1.34,2.09c-0.65,0.49-1.49,0.74-2.51,0.74
		c-1.28,0-2.3-0.39-3.05-1.18s-1.13-1.9-1.13-3.32c0-1.47,0.38-2.62,1.14-3.43s1.74-1.22,2.95-1.22c1.17,0,2.13,0.4,2.87,1.2
		c0.74,0.8,1.11,1.92,1.11,3.36c0,0.09,0,0.22-0.01,0.4h-6.53c0.05,0.96,0.33,1.7,0.82,2.21c0.49,0.51,1.1,0.77,1.83,0.77
		c0.54,0,1.01-0.14,1.39-0.43S177.67,99.87,177.9,99.24z M173.03,96.84h4.89c-0.07-0.74-0.25-1.29-0.56-1.66
		c-0.47-0.57-1.09-0.86-1.84-0.86c-0.68,0-1.25,0.23-1.72,0.68S173.08,96.08,173.03,96.84z"/>
	<path class="st11" d="M185.78,96.14c0-0.58,0.21-1.07,0.62-1.48c0.41-0.41,0.9-0.61,1.47-0.61c0.58,0,1.07,0.2,1.48,0.61
		c0.41,0.41,0.61,0.9,0.61,1.48s-0.21,1.07-0.61,1.48c-0.41,0.41-0.9,0.61-1.48,0.61c-0.57,0-1.06-0.21-1.47-0.61
		C185.98,97.21,185.78,96.72,185.78,96.14z"/>
	<path class="st11" d="M202.31,98.85l1.46,0.19c-0.16,1.01-0.57,1.79-1.22,2.36c-0.66,0.57-1.46,0.85-2.42,0.85
		c-1.2,0-2.16-0.39-2.89-1.18c-0.73-0.78-1.09-1.91-1.09-3.37c0-0.95,0.16-1.77,0.47-2.48s0.79-1.24,1.43-1.6s1.34-0.53,2.09-0.53
		c0.95,0,1.73,0.24,2.33,0.72c0.61,0.48,0.99,1.16,1.16,2.05l-1.44,0.22c-0.14-0.59-0.38-1.03-0.73-1.33
		c-0.35-0.3-0.77-0.45-1.27-0.45c-0.75,0-1.36,0.27-1.82,0.8c-0.47,0.54-0.7,1.38-0.7,2.54c0,1.18,0.23,2.03,0.68,2.57
		c0.45,0.53,1.04,0.8,1.76,0.8c0.58,0,1.07-0.18,1.46-0.54S202.21,99.59,202.31,98.85z"/>
	<path class="st11" d="M204.49,97.68c0-1.62,0.45-2.82,1.35-3.6c0.75-0.65,1.67-0.97,2.75-0.97c1.2,0,2.19,0.39,2.95,1.18
		c0.76,0.79,1.15,1.88,1.15,3.27c0,1.13-0.17,2.01-0.51,2.66c-0.34,0.65-0.83,1.15-1.48,1.5c-0.65,0.36-1.35,0.54-2.12,0.54
		c-1.23,0-2.22-0.39-2.97-1.18S204.49,99.16,204.49,97.68z M206.01,97.68c0,1.12,0.25,1.96,0.73,2.52c0.49,0.56,1.11,0.84,1.85,0.84
		c0.74,0,1.35-0.28,1.84-0.84c0.49-0.56,0.73-1.42,0.73-2.57c0-1.08-0.25-1.9-0.74-2.46c-0.49-0.56-1.1-0.84-1.83-0.84
		c-0.74,0-1.36,0.28-1.85,0.83C206.26,95.72,206.01,96.56,206.01,97.68z"/>
	<path class="st11" d="M213.88,97.68c0-1.62,0.45-2.82,1.35-3.6c0.75-0.65,1.67-0.97,2.75-0.97c1.2,0,2.19,0.39,2.95,1.18
		c0.76,0.79,1.15,1.88,1.15,3.27c0,1.13-0.17,2.01-0.51,2.66c-0.34,0.65-0.83,1.15-1.48,1.5c-0.65,0.36-1.35,0.54-2.12,0.54
		c-1.23,0-2.22-0.39-2.97-1.18S213.88,99.16,213.88,97.68z M215.4,97.68c0,1.12,0.25,1.96,0.73,2.52c0.49,0.56,1.11,0.84,1.85,0.84
		c0.74,0,1.35-0.28,1.84-0.84c0.49-0.56,0.73-1.42,0.73-2.57c0-1.08-0.25-1.9-0.74-2.46c-0.49-0.56-1.1-0.84-1.83-0.84
		c-0.74,0-1.36,0.28-1.85,0.83C215.65,95.72,215.4,96.56,215.4,97.68z"/>
	<path class="st11" d="M223.83,102.06V89.97h1.48v6.89l3.51-3.56h1.92l-3.35,3.25l3.69,5.51h-1.83l-2.89-4.48l-1.05,1.01v3.47
		H223.83z"/>
	<path class="st11" d="M236.75,96.14c0-0.58,0.21-1.07,0.62-1.48c0.41-0.41,0.9-0.61,1.47-0.61c0.58,0,1.07,0.2,1.48,0.61
		c0.41,0.41,0.61,0.9,0.61,1.48s-0.21,1.07-0.61,1.48c-0.41,0.41-0.9,0.61-1.48,0.61c-0.57,0-1.06-0.21-1.47-0.61
		C236.95,97.21,236.75,96.72,236.75,96.14z"/>
	<path class="st11" d="M253.56,99.24l1.53,0.19c-0.24,0.9-0.69,1.59-1.34,2.09c-0.65,0.49-1.49,0.74-2.51,0.74
		c-1.28,0-2.3-0.39-3.05-1.18s-1.13-1.9-1.13-3.32c0-1.47,0.38-2.62,1.14-3.43s1.74-1.22,2.95-1.22c1.17,0,2.13,0.4,2.87,1.2
		c0.74,0.8,1.11,1.92,1.11,3.36c0,0.09,0,0.22-0.01,0.4h-6.53c0.05,0.96,0.33,1.7,0.82,2.21c0.49,0.51,1.1,0.77,1.83,0.77
		c0.54,0,1.01-0.14,1.39-0.43S253.34,99.87,253.56,99.24z M248.69,96.84h4.89c-0.07-0.74-0.25-1.29-0.56-1.66
		c-0.47-0.57-1.09-0.86-1.84-0.86c-0.68,0-1.25,0.23-1.72,0.68S248.74,96.08,248.69,96.84z"/>
	<path class="st11" d="M256.96,102.06V93.3h1.34v1.25c0.64-0.96,1.57-1.44,2.79-1.44c0.53,0,1.01,0.09,1.46,0.28
		c0.44,0.19,0.77,0.44,0.99,0.75c0.22,0.31,0.37,0.67,0.46,1.1c0.05,0.27,0.08,0.76,0.08,1.44v5.38h-1.48v-5.33
		c0-0.61-0.06-1.06-0.17-1.36c-0.12-0.3-0.32-0.54-0.61-0.72s-0.64-0.27-1.04-0.27c-0.63,0-1.18,0.2-1.64,0.6s-0.69,1.16-0.69,2.28
		v4.78H256.96z"/>
	<path class="st11" d="M264.46,105.46l0.28-1.26c0.3,0.08,0.53,0.12,0.7,0.12c0.3,0,0.53-0.1,0.68-0.3c0.15-0.2,0.22-0.7,0.22-1.5
		v-9.2h1.48v9.24c0,1.08-0.14,1.83-0.42,2.25c-0.36,0.55-0.95,0.83-1.78,0.83C265.22,105.61,264.84,105.56,264.46,105.46z
		 M266.34,91.69v-1.72h1.48v1.72H266.34z"/>
	<path class="st11" d="M269.55,97.68c0-1.62,0.45-2.82,1.35-3.6c0.75-0.65,1.67-0.97,2.75-0.97c1.2,0,2.19,0.39,2.95,1.18
		c0.76,0.79,1.15,1.88,1.15,3.27c0,1.13-0.17,2.01-0.51,2.66c-0.34,0.65-0.83,1.15-1.48,1.5c-0.65,0.36-1.35,0.54-2.12,0.54
		c-1.23,0-2.22-0.39-2.97-1.18S269.55,99.16,269.55,97.68z M271.08,97.68c0,1.12,0.25,1.96,0.73,2.52c0.49,0.56,1.11,0.84,1.85,0.84
		c0.74,0,1.35-0.28,1.84-0.84c0.49-0.56,0.73-1.42,0.73-2.57c0-1.08-0.25-1.9-0.74-2.46c-0.49-0.56-1.1-0.84-1.83-0.84
		c-0.74,0-1.36,0.28-1.85,0.83C271.32,95.72,271.08,96.56,271.08,97.68z"/>
	<path class="st11" d="M279.43,105.43l-0.16-1.39c0.32,0.09,0.61,0.13,0.85,0.13c0.33,0,0.59-0.06,0.79-0.17
		c0.2-0.11,0.36-0.26,0.49-0.46c0.09-0.15,0.25-0.52,0.45-1.11c0.03-0.08,0.07-0.2,0.13-0.36l-3.32-8.77h1.6l1.82,5.07
		c0.24,0.64,0.45,1.32,0.63,2.03c0.17-0.68,0.37-1.35,0.61-2l1.87-5.1h1.48l-3.33,8.91c-0.36,0.96-0.64,1.62-0.83,1.99
		c-0.26,0.49-0.57,0.85-0.91,1.08s-0.75,0.34-1.22,0.34C280.1,105.61,279.78,105.55,279.43,105.43z"/>
</g>
</svg>
