<?xml version="1.0" encoding="utf-8"?>
<!-- Generator: Adobe Illustrator 26.0.1, SVG Export Plug-In . SVG Version: 6.00 Build 0)  -->
<svg version="1.1" id="Layer_1" xmlns="http://www.w3.org/2000/svg" xmlns:xlink="http://www.w3.org/1999/xlink" x="0px" y="0px"
	 viewBox="0 0 300 130.14" style="enable-background:new 0 0 300 130.14;" xml:space="preserve">
<style type="text/css">
	.st0{fill:#E94E1B;}
</style>
<g>
	<path class="st0" d="M110.72,101.79c-1.92,0-4.07-1.15-6.45-3.46c-2.38-2.31-4.53-5.38-6.45-9.23c-1.81-3.42-3.34-6.3-4.58-8.65
		c-1.25-2.35-2.38-4.31-3.4-5.9c-1.02-1.58-2.01-2.93-2.97-4.04c-0.96-1.11-2.07-2.18-3.31-3.21l-1.7-1.79
		c5.54-0.77,10.72-2.07,15.53-3.9c4.81-1.83,8.97-4.09,12.48-6.78c3.51-2.68,6.25-5.73,8.23-9.14c1.98-3.41,2.97-7.16,2.97-11.25
		c0-3.07-0.62-5.84-1.87-8.31c-1.25-2.47-2.89-4.56-4.92-6.27c-2.04-1.7-4.41-3.03-7.13-3.96s-5.55-1.41-8.49-1.41
		c-4.41,0-9.11,1.21-14.09,3.63c-4.98,2.42-9.39,5.87-13.24,10.37v-0.13l-0.51,0.51c-0.11,0.17-0.23,0.3-0.34,0.38
		c-0.11,0.08-0.17,0.21-0.17,0.38c0,0.09,0.11,0.21,0.34,0.38l-0.51,0.76v-0.51c0-1.62-0.28-3.4-0.85-5.32
		c-0.57-1.92-1.44-3.72-2.63-5.38c-1.19-1.67-2.8-3.08-4.84-4.23c-2.04-1.15-4.47-1.73-7.3-1.73c-2.38,0-4.89,0.51-7.55,1.54
		c-2.66,1.03-5.12,2.65-7.38,4.87c-2.72,2.65-4.44,4.72-5.18,6.22c-0.73,1.5-1.1,2.5-1.1,3.01c0,0.43,0.23,0.64,0.68,0.64
		c0.45,0,1.42-0.55,2.89-1.67l4.07-3.85c0.45-0.51,1.16-1.07,2.12-1.67c0.96-0.6,2.01-1.2,3.14-1.79c1.13-0.6,2.29-1.09,3.48-1.47
		c1.19-0.38,2.29-0.58,3.31-0.58c2.15,0,3.22,1.07,3.22,3.21v1.03c-0.45,6.67-1.27,12.71-2.46,18.14
		c-1.19,5.43-2.55,10.47-4.07,15.13c-1.53,4.66-3.12,9.04-4.75,13.14c-1.64,4.1-3.08,8.08-4.33,11.92l-2.72,8.21
		c-0.34,1.28-0.51,2.48-0.51,3.59c0,2.14,0.59,3.93,1.78,5.38c1.19,1.45,2.97,2.18,5.35,2.18c1.81,0,3.28-0.28,4.41-0.83
		c1.13-0.56,2.21-1.73,3.22-3.53c1.02-1.79,2.15-4.38,3.4-7.76c1.24-3.38,3-7.93,5.26-13.65c0.68-2.14,1.27-3.85,1.78-5.13
		c0.51-1.28,0.9-2.31,1.19-3.08c0.28-0.77,0.51-1.32,0.68-1.67c0.17-0.34,0.31-0.6,0.42-0.77c1.24,0.26,2.32,0.62,3.22,1.09
		c0.9,0.47,1.7,1.15,2.38,2.05c0.68,0.9,1.3,2.05,1.87,3.46c0.57,1.41,1.07,3.18,1.53,5.32c1.02,4.7,2.49,8.97,4.41,12.82
		c1.92,3.85,4.21,7.14,6.87,9.87c2.66,2.73,5.69,4.85,9.08,6.35c3.4,1.49,7.07,2.24,11.03,2.24c2.15,0,4.1-0.24,5.86-0.71
		c1.75-0.47,2.8-1.13,3.14-1.99v-0.26c0-0.6-0.34-1.22-1.02-1.86C112.59,102.11,111.74,101.79,110.72,101.79z M70.33,60.76h-3.9
		c-0.34,0-0.51-0.08-0.51-0.26c0-0.17,0.03-0.36,0.08-0.58c0.06-0.21,0.14-0.53,0.26-0.96l0.51-3.21c0.79-4.1,1.89-8.08,3.31-11.92
		c1.41-3.85,3.65-7.56,6.7-11.15c3.17-3.67,6.17-6.41,9-8.2c2.83-1.79,5.71-2.69,8.66-2.69c3.28,0,5.8,1.13,7.55,3.4
		c1.75,2.27,2.63,5.06,2.63,8.4c0,3.76-0.93,7.29-2.8,10.58c-1.87,3.29-4.36,6.15-7.47,8.59c-3.11,2.44-6.76,4.38-10.95,5.83
		C79.21,60.04,74.85,60.76,70.33,60.76z"/>
	<path class="st0" d="M268.24,54.99h-0.17c-0.34,0-1.13,0.43-2.38,1.28c-1.25,0.85-2.49,2.14-3.73,3.85
		c-1.25,1.62-2.58,3.25-3.99,4.87c-1.42,1.62-2.83,3.16-4.24,4.62c-1.42,1.45-2.77,2.74-4.07,3.85c-1.3,1.11-2.35,1.97-3.14,2.56
		c-0.11-0.51-0.03-1.69,0.25-3.53c0.28-1.84,0.71-3.93,1.27-6.28c0.56-2.35,1.19-4.81,1.87-7.37c0.68-2.56,1.36-4.87,2.04-6.92
		c0.23-0.85,0.4-1.6,0.51-2.24c0.11-0.64,0.17-1,0.17-1.09c0.22-1.54-0.28-2.73-1.53-3.59c-1.25-0.85-2.49-1.28-3.74-1.28
		c-1.81,0-3.31,0.15-4.5,0.45c-1.19,0.3-2.24,0.86-3.14,1.67c-0.91,0.81-1.73,1.99-2.46,3.53c-0.74,1.54-1.56,3.51-2.46,5.9
		c-1.25,3.33-2.83,6.67-4.75,10c-1.93,3.33-3.85,6.35-5.77,9.04c-1.93,2.69-3.68,4.92-5.26,6.67c-1.59,1.75-2.6,2.8-3.06,3.14
		c-1.02,0.94-1.76,1.41-2.21,1.41c-0.23,0-0.17-1.75,0.17-5.26c0.23-1.88,0.82-4.55,1.78-8.01c0.96-3.46,2.29-7.76,3.99-12.88
		c0.68-1.79,1.24-3.53,1.7-5.19c0.45-1.67,0.68-2.8,0.68-3.4c0.23-1.71-0.17-3.1-1.19-4.17c-1.02-1.07-2.43-1.6-4.24-1.6
		c-2.15,0-4.22,0.81-6.2,2.44c-1.98,1.62-3.73,3.83-5.26,6.6c-1.53,2.78-2.8,5.96-3.82,9.55c-0.34,1.19-0.62,2.4-0.88,3.62
		c-0.31,0.36-0.58,0.66-0.81,0.87c-1.25,1.71-2.8,3.55-4.67,5.51c-1.87,1.97-3.85,3.78-5.94,5.45c-2.1,1.67-4.16,3.03-6.2,4.1
		c-2.04,1.07-3.85,1.6-5.43,1.6c-0.57,0-1.13-0.13-1.7-0.38c-0.57-0.26-1.08-0.73-1.53-1.41c-0.45-0.68-0.82-1.64-1.1-2.88
		c-0.28-1.24-0.31-2.84-0.08-4.81c0.22-2.56,0.99-5.34,2.29-8.33c1.3-2.99,2.86-5.77,4.67-8.33c1.81-2.56,3.74-4.68,5.77-6.35
		c2.04-1.67,3.9-2.5,5.6-2.5c1.13,0,1.72,0.41,1.78,1.22c0.05,0.81-0.17,1.73-0.68,2.76c-0.51,1.03-1.1,2.01-1.78,2.95
		c-0.68,0.94-1.08,1.54-1.19,1.79c-0.57,0.77-1.05,1.52-1.44,2.24c-0.4,0.73-0.59,1.3-0.59,1.73l0.17,0.51
		c0,0.26,0.28,0.38,0.85,0.38c0.9,0,1.95-0.43,3.14-1.28c1.19-0.85,2.29-1.92,3.31-3.21c1.02-1.28,1.89-2.63,2.63-4.04
		c0.73-1.41,1.16-2.63,1.27-3.65c0.57-5.81-2.94-8.72-10.52-8.72c-3.96,0-7.87,1.03-11.71,3.08c-3.85,2.05-7.33,4.68-10.44,7.88
		c-3.11,3.21-5.69,6.71-7.72,10.51c-0.69,1.29-1.23,2.54-1.71,3.78c-1.45,1.6-2.91,3.15-4.39,4.62c-2.6,2.56-5.12,4.77-7.55,6.6
		c-2.43,1.84-4.73,3.27-6.87,4.29c-2.15,1.03-3.96,1.54-5.43,1.54c-1.59-0.08-2.72-0.6-3.4-1.54c-0.68-0.94-1.1-2.09-1.27-3.46
		c-0.17-1.37-0.17-2.84,0-4.42c0.17-1.58,0.42-2.99,0.76-4.23c0.34-1.24,0.65-2.18,0.93-2.82c0.28-0.64,0.37-0.79,0.26-0.45
		l2.04-0.13c2.83-0.08,5.57-0.58,8.23-1.47c2.66-0.9,5.06-2.07,7.21-3.53c2.15-1.45,3.9-3.16,5.26-5.13
		c1.36-1.97,2.15-4.06,2.38-6.28c0.57-5.13-2.77-7.9-10.01-8.33h-1.87c-3.74,0.17-7.41,1.24-11.03,3.21
		c-3.62,1.97-6.87,4.42-9.76,7.37c-2.89,2.95-5.24,6.24-7.04,9.87c-1.81,3.63-2.89,7.16-3.22,10.58
		c-0.57,5.73,0.54,10.28,3.31,13.65c2.77,3.38,6.87,5.06,12.31,5.06c4.41,0,9.59-1.92,15.53-5.77c3.76-2.43,7.7-5.86,11.84-10.27
		c-0.16,4.84,0.98,8.76,3.43,11.75c2.77,3.38,6.82,5.06,12.14,5.06c4.3,0,9.36-1.86,15.19-5.58c4.34-2.77,8.88-6.95,13.63-12.54
		c-0.36,4.75,0.43,8.72,2.41,11.9c2.04,3.29,5.09,4.94,9.17,4.94c3.06,0,6.05-1.6,9-4.81c2.94-3.21,6.68-8.35,11.2-15.45l-1.87,9.1
		c-0.23,0.94-0.48,1.92-0.76,2.95c-0.28,1.03-0.54,2.05-0.76,3.08l-7.98,5.77c-6.68,5.04-11.63,9.4-14.85,13.08
		c-3.22,3.67-4.95,6.84-5.18,9.49c-0.22,1.97,0.57,3.67,2.38,5.13c1.81,1.45,4.52,2.18,8.15,2.18c2.83,0,5.91-0.62,9.25-1.86
		c3.34-1.24,6.62-3.23,9.85-5.96c3.22-2.74,6.22-6.35,9-10.83c2.77-4.49,4.95-10.02,6.53-16.6l1.02-4.36l5.09-4.23
		c3.4-2.82,6.28-5.47,8.66-7.95c2.38-2.48,4.27-4.7,5.69-6.67c1.41-1.97,2.46-3.65,3.14-5.06s1.02-2.46,1.02-3.14
		C269.65,55.34,269.26,54.99,268.24,54.99z M131.6,63.2c0.68-1.45,1.7-2.95,3.06-4.49c1.36-1.54,2.86-2.93,4.5-4.17
		c1.64-1.24,3.22-2.26,4.75-3.08c1.53-0.81,2.74-1.22,3.65-1.22c0.68,0,1.16,0.28,1.44,0.83c0.28,0.56,0.37,1.09,0.26,1.6
		c-0.23,2.65-2.01,4.92-5.35,6.79c-3.34,1.88-7.16,3.12-11.46,3.72c-0.11,0-0.26,0.02-0.42,0.06c-0.17,0.04-0.31,0.06-0.42,0.06
		V63.2z M223.77,99.29c-0.91,2.18-1.81,4.04-2.71,5.58c-1.93,2.99-4.22,5.56-6.87,7.69c-2.66,2.14-5.01,3.21-7.05,3.21
		c-1.13,0-1.59-0.51-1.36-1.54c0.23-2.31,1.58-4.76,4.07-7.37c2.49-2.61,6.45-5.88,11.88-9.81l4.07-2.95
		C225.35,95.38,224.67,97.11,223.77,99.29z"/>
</g>
</svg>
